<svg xmlns="http://www.w3.org/2000/svg" xmlns:xlink="http://www.w3.org/1999/xlink" xmlns:lucid="lucid" width="2915.73" height="1971.33"><g transform="translate(2181.4781084004176 -147.79477778861695)" lucid:page-tab-id="0_0"><path d="M-2500 0h3500v2500h-3500z" fill="#f2f3f5"/><path d="M-2179.48 233.13a12 12 0 0 1 12-12H720.25a12 12 0 0 1 12 12v1872a12 12 0 0 1-12 12h-2887.73a12 12 0 0 1-12-12z" stroke="#fff" stroke-width="4" fill="#fff"/><path d="M-2179.48 159.8a12 12 0 0 1 12-12h115.55a12 12 0 0 1 12 12v37.33a12 12 0 0 1-12 12h-115.55a12 12 0 0 1-12-12z" fill="#fff"/><use xlink:href="#a" transform="matrix(1,0,0,1,-2167.47810839622,163.39477778861695) translate(0 25.22222222222222)"/><use xlink:href="#b" transform="matrix(1,0,0,1,-2167.47810839622,163.39477778861695) translate(98.25925925925927 25.22222222222222)"/><path d="M-1178.02 1126.94a6 6 0 0 1 6-6H-810a6 6 0 0 1 6 6v111.66a6 6 0 0 1-6 6H-1172a6 6 0 0 1-6-6z" fill="none"/><use xlink:href="#c" transform="matrix(1,0,0,1,-1173.0206943866237,1125.9444179786606) translate(0 45.15104166666667)"/><use xlink:href="#d" transform="matrix(1,0,0,1,-1173.0206943866237,1125.9444179786606) translate(0 101.97395833333334)"/><path d="M-1123.56 1126.94a6 6 0 0 1 6-6H-778a6 6 0 0 1 6 6v108a6 6 0 0 1-6 6h-339.56a6 6 0 0 1-6-6z" stroke="#3a414a" stroke-width="3" fill="#ffe342"/><use xlink:href="#e" transform="matrix(1,0,0,1,-1105.982236436431,1126.9444179786606) translate(80.31591796875 62.4248046875)"/><use xlink:href="#f" transform="matrix(1,0,0,1,-1105.982236436431,1126.9444179786606) translate(137.66064453125 62.4248046875)"/><path d="M-974.55 1066.7a6 6 0 0 1 6-6h41.52a6 6 0 0 1 6 6v48.24a6 6 0 0 1-6 6h-41.52a6 6 0 0 1-6-6z" fill="none"/><use xlink:href="#g" transform="matrix(1,0,0,1,-969.5461015628109,1065.6982186634255) translate(0 33.57421875)"/><path d="M563.53 1197.4c0 17.44-78.6 31.58-175.6 31.58-96.97 0-175.6-14.14-175.6-31.58V944.78c0-17.44 78.63-31.58 175.6-31.58 97 0 175.6 14.14 175.6 31.58z" stroke="#3a414a" stroke-width="3" fill="#fc9432"/><path d="M563.53 944.78c0 17.44-78.6 31.58-175.6 31.58-96.97 0-175.6-14.14-175.6-31.58" stroke="#3a414a" stroke-width="3" fill="none"/><path d="M-1263.4 1742.9a6 6 0 0 1 6-6H-49.7a6 6 0 0 1 6 6v163.35a6 6 0 0 1-6 6h-1207.7a6 6 0 0 1-6-6z" stroke="#3a414a" stroke-width="3" fill="#fff"/><path d="M-1027.84 976.9a6 6 0 0 1 6-6h191.03a6 6 0 0 1 6 6v25.7a6 6 0 0 1-6 6h-191.04a6 6 0 0 1-6-6z" fill="none"/><use xlink:href="#h" transform="matrix(1,0,0,1,-1022.8411032471322,975.8931693108373) translate(0 22.07421875)"/><path d="M-470.34 950.46a6 6 0 0 1 6-6h46.92a6 6 0 0 1 6 6v25.7a6 6 0 0 1-6 6h-46.92a6 6 0 0 1-6-6z" fill="none"/><use xlink:href="#i" transform="matrix(1,0,0,1,-465.3398367937149,949.4614444552835) translate(0 22.07421875)"/><path d="M-217.35 950.46a6 6 0 0 1 6-6h57.97a6 6 0 0 1 6 6v53.4a6 6 0 0 1-6 6h-57.97a6 6 0 0 1-6-6z" fill="none"/><use xlink:href="#j" transform="matrix(1,0,0,1,-212.34733499679578,949.4614444552835) translate(0 22.2236328125)"/><use xlink:href="#k" transform="matrix(1,0,0,1,-212.34733499679578,949.4614444552835) translate(0 49.9248046875)"/><path d="M-699.4 1557.57v148.75" stroke="#3a414a" stroke-width="7" fill="none"/><path d="M-699.4 1539.8l4.65 14.27h-9.27zM-699.4 1724.08l-4.62-14.26h9.27z" stroke="#3a414a" stroke-width="7" fill="#3a414a"/><path d="M-618 1554.1v154.33" stroke="#3a414a" stroke-width="6" fill="none"/><path d="M-618 1536.85l4.63 14.26h-9.27zM-618 1725.7l-4.64-14.27h9.26z" stroke="#3a414a" stroke-width="6" fill="#3a414a"/><path d="M-533.53 1554.1v154.33" stroke="#3a414a" stroke-width="6" fill="none"/><path d="M-533.53 1536.85l4.64 14.26h-9.26zM-533.53 1725.7l-4.63-14.27h9.27z" stroke="#3a414a" stroke-width="6" fill="#3a414a"/><path d="M-13.73 1074.54h197.6" stroke="#3a414a" stroke-width="6" fill="none"/><path d="M-31 1074.54l14.27-4.64v9.27zM201.13 1074.54l-14.27 4.63v-9.27z" stroke="#3a414a" stroke-width="6" fill="#3a414a"/><path d="M308.25 1066.7a6 6 0 0 1 6-6h183.7a6 6 0 0 1 6 6v31.15a6 6 0 0 1-6 6h-183.7a6 6 0 0 1-6-6z" fill="none"/><use xlink:href="#l" transform="matrix(1,0,0,1,313.2452584637443,1065.6982186634255) translate(0 26.661458333333336)"/><use xlink:href="#m" transform="matrix(1,0,0,1,313.2452584637443,1065.6982186634255) translate(62.282986111111114 26.661458333333336)"/><path d="M-850.84 1780.75a6 6 0 0 1 6-6h472.05a6 6 0 0 1 6 6v87.66a6 6 0 0 1-6 6h-472.04a6 6 0 0 1-6-6z" fill="none"/><use xlink:href="#n" transform="matrix(1,0,0,1,-845.83494821662,1779.750362225507) translate(0 61.5625)"/><use xlink:href="#o" transform="matrix(1,0,0,1,-845.83494821662,1779.750362225507) translate(205.72916666666663 61.5625)"/><use xlink:href="#p" transform="matrix(1,0,0,1,-845.83494821662,1779.750362225507) translate(321.51041666666663 61.5625)"/><path d="M-2002.7 339.4a12 12 0 0 1 12-12h446.98a12 12 0 0 1 12 12v1582.18a12 12 0 0 1-12 12h-447a12 12 0 0 1-12-12z" stroke="#4d9eff" stroke-width="10" fill="#fff"/><path d="M-1948.63 913.1a6 6 0 0 1 6-6h339.55a6 6 0 0 1 6 6v108a6 6 0 0 1-6 6h-339.55a6 6 0 0 1-6-6z" stroke="#3a414a" stroke-width="3" fill="#6db1ff"/><use xlink:href="#q" transform="matrix(1,0,0,1,-1931.0528763527554,913.1031693108373) translate(107.13172743055554 63.359809027777786)"/><path d="M-1947.88 590.57a6 6 0 0 1 6-6h339.55a6 6 0 0 1 6 6v108a6 6 0 0 1-6 6h-339.55a6 6 0 0 1-6-6z" stroke="#000" stroke-opacity="0" stroke-width="3" fill="#6db1ff"/><use xlink:href="#r" transform="matrix(1,0,0,1,-1930.3050719968,590.5697733385153) translate(138.31879340277777 63.359809027777786)"/><path d="M-1948.63 1227.2a6 6 0 0 1 6-6h339.55a6 6 0 0 1 6 6v108a6 6 0 0 1-6 6h-339.55a6 6 0 0 1-6-6z" stroke="#3a414a" stroke-width="3" fill="#4d9eff"/><use xlink:href="#s" transform="matrix(1,0,0,1,-1931.0528763527554,1227.1859299930709) translate(101.078125 63.359809027777786)"/><path d="M-1943 1541.27a6 6 0 0 1 6-6h339.56a6 6 0 0 1 6 6v108a6 6 0 0 1-6 6H-1937a6 6 0 0 1-6-6z" stroke="#3a414a" stroke-width="3" fill="#4d9eff"/><use xlink:href="#t" transform="matrix(1,0,0,1,-1925.4150408229134,1541.2686906753045) translate(130.22960069444446 63.359809027777786)"/><path d="M-1870.4 403.04a6 6 0 0 1 6-6h153.57a6 6 0 0 1 6 6v62a6 6 0 0 1-6 6h-153.56a6 6 0 0 1-6-6z" fill="none"/><use xlink:href="#u" transform="matrix(1,0,0,1,-1865.3914238340913,402.0363773661936) translate(0 49.0625)"/><path d="M-1263.4 682.98a12 12 0 0 1 12-12H-55.7a12 12 0 0 1 12 12v815.43a12 12 0 0 1-12 12h-1195.7a12 12 0 0 1-12-12z" stroke="#54c45e" stroke-width="6" fill="#fff"/><path d="M-366.8 1000.38c0 6.63-33.16 12-74.08 12-40.9 0-74.08-5.37-74.08-12v-96c0-6.62 33.17-12 74.08-12 40.92 0 74.1 5.38 74.1 12z" stroke="#3a414a" stroke-width="3" fill="#fff"/><path d="M-366.8 904.38c0 6.63-33.16 12-74.08 12-40.9 0-74.08-5.37-74.08-12" stroke="#3a414a" stroke-width="3" fill="none"/><path d="M-1142.3 913.23h389v127h-389zM-1142.3 1040.23h389v267h-389z" fill="#fff"/><path d="M-1142.3 913.23v127M-753.3 913.23v127M-1142.3 1040.23v267M-753.3 1040.23v267M-1142.3 913.23h389M-1142.3 1040.23h389M-1142.3 1307.23h389" stroke="#3a414a" stroke-width="3" fill="none"/><path d="M-514.96 1126.94a6 6 0 0 1 6-6h387.43a6 6 0 0 1 6 6v158.7a6 6 0 0 1-6 6h-387.43a6 6 0 0 1-6-6z" stroke="#3a414a" stroke-width="3" fill="#fff"/><use xlink:href="#v" transform="matrix(1,0,0,1,-494.9899760849867,1129.4796085656867) translate(61.63953993055554 88.79730902777779)"/><use xlink:href="#w" transform="matrix(1,0,0,1,-494.9899760849867,1129.4796085656867) translate(179.87087673611111 88.79730902777779)"/><path d="M-123.13 1000.38c0 6.63-33.17 12-74.1 12-40.9 0-74.07-5.37-74.07-12v-96c0-6.62 33.17-12 74.08-12 40.92 0 74.1 5.38 74.1 12z" stroke="#000" stroke-width="3" fill="#fc9432"/><path d="M-123.13 904.38c0 6.63-33.17 12-74.1 12-40.9 0-74.07-5.37-74.07-12" stroke="#000" stroke-width="3" fill="none"/><path d="M-1123.56 1152.3a6 6 0 0 1 6-6H-778a6 6 0 0 1 6 6v108a6 6 0 0 1-6 6h-339.56a6 6 0 0 1-6-6z" stroke="#f2f3f5" stroke-width="3" fill="#fcce14"/><use xlink:href="#x" transform="matrix(1,0,0,1,-1105.982236436431,1152.2963238489249) translate(64.94639756944446 63.359809027777786)"/><use xlink:href="#w" transform="matrix(1,0,0,1,-1105.982236436431,1152.2963238489249) translate(133.56401909722223 63.359809027777786)"/><path d="M-1167.78 738.57a6 6 0 0 1 6-6h281.57a6 6 0 0 1 6 6v83.25a6 6 0 0 1-6 6h-281.58a6 6 0 0 1-6-6z" fill="none"/><use xlink:href="#y" transform="matrix(1,0,0,1,-1162.7838793405886,737.5729889692097) translate(0 34.11328125)"/><use xlink:href="#z" transform="matrix(1,0,0,1,-1162.7838793405886,737.5729889692097) translate(0 76.73046875)"/><path d="M-234.1 945.02a6 6 0 0 1 6-6h61.77a6 6 0 0 1 6 6v31.15a6 6 0 0 1-6 6h-61.78a6 6 0 0 1-6-6z" fill="none"/><use xlink:href="#A" transform="matrix(1,0,0,1,-229.1089994933236,944.0159149413946) translate(0 26.661458333333336)"/><path d="M-475.15 936.8a6 6 0 0 1 6-6h56.54a6 6 0 0 1 6 6v31.16a6 6 0 0 1-6 6h-56.55a6 6 0 0 1-6-6z" fill="none"/><g><use xlink:href="#B" transform="matrix(1,0,0,1,-470.147725248576,935.8050381382737) translate(0 26.661458333333336)"/></g><path d="M-1027.38 961.6a6 6 0 0 1 6-6h94.36a6 6 0 0 1 6 6v31.15a6 6 0 0 1-6 6h-94.36a6 6 0 0 1-6-6z" fill="none"/><g><use xlink:href="#C" transform="matrix(1,0,0,1,-1022.3765572255861,960.5892656358391) translate(0 26.661458333333336)"/></g><path d="M-987.15 1075.24a6 6 0 0 1 6-6h66.73a6 6 0 0 1 6 6v31.16a6 6 0 0 1-6 6h-66.73a6 6 0 0 1-6-6z" fill="none"/><g><use xlink:href="#D" transform="matrix(1,0,0,1,-982.153379763218,1074.2429676265986) translate(0 26.661458333333336)"/></g><path d="M-1499.75 1108.47h206.36" stroke="#3a414a" stroke-width="6" fill="none"/><path d="M-1517.02 1108.47l14.27-4.63v9.27zM-1276.12 1108.47l-14.27 4.64v-9.26z" stroke="#3a414a" stroke-width="6" fill="#3a414a"/><defs><path d="M63-220v92h138v28H63V0H30v-248h175v28H63" id="E"/><path d="M114-163C36-179 61-72 57 0H25l-1-190h30c1 12-1 29 2 39 6-27 23-49 58-41v29" id="F"/><path d="M141-36C126-15 110 5 73 4 37 3 15-17 15-53c-1-64 63-63 125-63 3-35-9-54-41-54-24 1-41 7-42 31l-33-3c5-37 33-52 76-52 45 0 72 20 72 64v82c-1 20 7 32 28 27v20c-31 9-61-2-59-35zM48-53c0 20 12 33 32 33 41-3 63-29 60-74-43 2-92-5-92 41" id="G"/><path d="M210-169c-67 3-38 105-44 169h-31v-121c0-29-5-50-35-48C34-165 62-65 56 0H25l-1-190h30c1 10-1 24 2 32 10-44 99-50 107 0 11-21 27-35 58-36 85-2 47 119 55 194h-31v-121c0-29-5-49-35-48" id="H"/><path d="M100-194c63 0 86 42 84 106H49c0 40 14 67 53 68 26 1 43-12 49-29l28 8c-11 28-37 45-77 45C44 4 14-33 15-96c1-61 26-98 85-98zm52 81c6-60-76-77-97-28-3 7-6 17-6 28h103" id="I"/><g id="a"><use transform="matrix(0.08641975308641976,0,0,0.08641975308641976,0,0)" xlink:href="#E"/><use transform="matrix(0.08641975308641976,0,0,0.08641975308641976,18.925925925925927,0)" xlink:href="#F"/><use transform="matrix(0.08641975308641976,0,0,0.08641975308641976,29.20987654320988,0)" xlink:href="#G"/><use transform="matrix(0.08641975308641976,0,0,0.08641975308641976,46.49382716049383,0)" xlink:href="#H"/><use transform="matrix(0.08641975308641976,0,0,0.08641975308641976,72.33333333333334,0)" xlink:href="#I"/></g><path d="M126-127c33 6 58 20 58 59 0 88-139 92-164 29-3-8-5-16-6-25l32-3c6 27 21 44 54 44 32 0 52-15 52-46 0-38-36-46-79-43v-28c39 1 72-4 72-42 0-27-17-43-46-43-28 0-47 15-49 41l-32-3c6-42 35-63 81-64 48-1 79 21 79 65 0 36-21 52-52 59" id="J"/><use transform="matrix(0.08641975308641976,0,0,0.08641975308641976,0,0)" xlink:href="#J" id="b"/><path fill="#3a414a" d="M525 21C250 26 36-232 36-512v-335c-8-279 214-533 489-533 269 0 443 204 484 450H844c-26-159-149-285-319-285-187 0-324 162-324 352v367c-5 191 137 352 324 352 171 0 294-127 319-285h165C968-183 794 16 525 21" id="K"/><path fill="#3a414a" d="M838-484c0-173-151-342-322-342-177 0-319 167-319 342 0 176 146 340 319 340 171 0 322-167 322-340zm-807 0c0-265 224-507 485-507 260 0 487 246 487 507 0 260-229 505-487 505C255 21 31-224 31-484" id="L"/><path fill="#3a414a" d="M1018-991c257 0 359 224 359 507V0h-166v-484c0-228-64-342-193-342-155-1-215 166-215 342V0H637l-1-484c0-228-64-342-193-342-159-1-225 164-225 342V0H53v-970h165v68c59-59 134-89 225-89 133 0 229 56 286 168 46-112 142-168 289-168" id="M"/><path fill="#3a414a" d="M528 21C257 21 44-237 44-512v-845h165v863c-5 182 140 350 319 350 184 0 320-166 320-354v-859h166v845c8 275-215 533-486 533" id="N"/><path fill="#3a414a" d="M530-826c-179 0-312 160-312 342V0H53v-970h165v127c78-99 182-148 312-148 289 0 456 203 456 499V0H819v-484c2-203-95-342-289-342" id="O"/><path fill="#3a414a" d="M233-1172c-50 0-96-44-96-94 0-49 46-93 96-93s96 43 96 93c0 52-44 94-96 94zM26-970h289V0H150v-805H26v-165" id="P"/><path fill="#3a414a" d="M395 0C260 4 152-110 152-245v-560H6v-165c76 0 121-15 136-44 7-13 10-65 10-156h165v200h235v165H317v560c-9 115 138 72 235 80V0H395" id="Q"/><path fill="#3a414a" d="M227 223c70 1 118-13 144-44 18-20 89-200 113-260L-1-970h190l373 688 274-688h179L558 176c-61 148-166 217-331 211V223" id="R"/><g id="c"><use transform="matrix(0.026041666666666668,0,0,0.026041666666666668,0,0)" xlink:href="#K"/><use transform="matrix(0.026041666666666668,0,0,0.026041666666666668,29.53125,0)" xlink:href="#L"/><use transform="matrix(0.026041666666666668,0,0,0.026041666666666668,59.609375,0)" xlink:href="#M"/><use transform="matrix(0.026041666666666668,0,0,0.026041666666666668,100.67708333333334,0)" xlink:href="#N"/><use transform="matrix(0.026041666666666668,0,0,0.026041666666666668,131.40625,0)" xlink:href="#O"/><use transform="matrix(0.026041666666666668,0,0,0.026041666666666668,161.27604166666666,0)" xlink:href="#P"/><use transform="matrix(0.026041666666666668,0,0,0.026041666666666668,172.47395833333331,0)" xlink:href="#Q"/><use transform="matrix(0.026041666666666668,0,0,0.026041666666666668,189.19270833333331,0)" xlink:href="#R"/></g><path fill="#3a414a" d="M812-932c0-173-180-260-368-260H218v524h226c185 4 368-93 368-264zm166 0c0 250-274 437-534 429H218V0H51v-1357h393c258-7 534 177 534 425" id="S"/><path fill="#3a414a" d="M125-1357h167V0H125v-1357" id="T"/><path fill="#3a414a" d="M484-144c91 0 275-43 275-120v-184c-54 18-283 13-339 27-84 21-172 73-172 157 0 80 79 120 236 120zm27-847c168 0 413 106 413 260v563c0 15 16 23 48 26-4 64-6 118-6 163-81-4-138-29-172-76-80 51-181 76-304 76C213 21 75-75 75-266c0-155 132-276 270-302-15-8 340-16 395-49 13-7 20-20 21-39-1 24-2 8-2-49 0-71-154-124-234-124-152 0-248 58-288 173L79-690c32-191 203-301 432-301" id="U"/><path fill="#3a414a" d="M439-1189c-122 0-183 48-183 143v76h183v165H256V0H89v-805H13v-165h76c-8-144 16-237 103-308 64-53 146-79 247-79v168" id="V"/><path fill="#3a414a" d="M535-805c-177 0-317 145-317 321V0H51v-970h167v134c85-89 189-134 310-134h218v218c-83-35-153-53-211-53" id="W"/><g id="d"><use transform="matrix(0.026041666666666668,0,0,0.026041666666666668,0,0)" xlink:href="#S"/><use transform="matrix(0.026041666666666668,0,0,0.026041666666666668,28.385416666666668,0)" xlink:href="#T"/><use transform="matrix(0.026041666666666668,0,0,0.026041666666666668,39.63541666666667,0)" xlink:href="#U"/><use transform="matrix(0.026041666666666668,0,0,0.026041666666666668,66.92708333333334,0)" xlink:href="#Q"/><use transform="matrix(0.026041666666666668,0,0,0.026041666666666668,83.64583333333334,0)" xlink:href="#V"/><use transform="matrix(0.026041666666666668,0,0,0.026041666666666668,97.05729166666667,0)" xlink:href="#L"/><use transform="matrix(0.026041666666666668,0,0,0.026041666666666668,127.13541666666667,0)" xlink:href="#W"/><use transform="matrix(0.026041666666666668,0,0,0.026041666666666668,150.234375,0)" xlink:href="#M"/></g><path fill="#3a414a" d="M848-827c4-216-138-398-348-398H204v1095h296c203 6 348-189 348-398v-299zm130 299C987-254 769 0 500 0H74v-1355h426c267-9 478 255 478 528v299" id="X"/><path fill="#3a414a" d="M497-108c108 0 303-51 303-143v-220c-2 23-338 19-365 38-104 20-200 82-200 182 0 95 87 143 262 143zm28-871c161 0 405 100 405 248v579c0 27 16 41 48 44-1 21-3 64-5 129-72-4-122-33-151-87-82 59-188 88-318 88C233 22 97-70 97-253c0-145 124-253 248-288 70-20 368-9 427-58 17-9 27-25 29-46-1 7-1-13-1-60 0-84-168-147-260-147-166 0-269 58-309 174l-126-27c31-178 203-274 420-274" id="Y"/><path fill="#3a414a" d="M406 0C279 4 176-105 176-232v-595H26v-130c75 0 120-17 137-51 9-17 13-69 13-155h130v206h241v130H306v595c0 70 49 105 146 105 18 0 78-3 95-3V0H406" id="Z"/><g id="e"><use transform="matrix(0.0126953125,0,0,0.0126953125,0,0)" xlink:href="#X"/><use transform="matrix(0.0126953125,0,0,0.0126953125,13.9267578125,0)" xlink:href="#Y"/><use transform="matrix(0.0126953125,0,0,0.0126953125,26.8505859375,0)" xlink:href="#Z"/><use transform="matrix(0.0126953125,0,0,0.0126953125,34.6201171875,0)" xlink:href="#Y"/></g><path fill="#3a414a" d="M892-988c1-180-155-261-350-261-239 0-359 83-359 250 0 109 72 186 218 225 134 36 273 57 404 101 148 49 217 165 217 318 0 218-259 377-488 377C285 22 54-135 53-369h130c6 176 157 261 349 261 178 0 360-88 360-250 0-109-72-188-217-228-134-37-272-59-404-103C123-738 53-851 53-998c0-227 241-381 478-381 258 0 497 146 491 391H892" id="aa"/><path fill="#3a414a" d="M52-478c0-256 228-501 485-501 264 0 489 248 480 516H180c0 180 174 355 357 355 148 0 301-110 347-219l130 23C955-140 749 17 537 22 280 28 52-222 52-478zm815-115c-38-129-172-257-330-256-158 0-295 130-340 256h670" id="ab"/><path fill="#3a414a" d="M550-827c-191 0-346 159-346 349V0H72v-957h132v174c85-116 198-174 339-174h204v174c-69-29-134-44-197-44" id="ac"/><path fill="#3a414a" d="M178-957l334 813 331-813h142L595 0H424L33-957h145" id="ad"/><path fill="#3a414a" d="M240-1205c-40 0-79-36-79-76s39-76 79-76c41 0 78 35 78 76s-37 76-78 76zM47-957h257V0H174v-827H47v-130" id="ae"/><path fill="#3a414a" d="M51-478c0-256 221-509 478-501 201 6 353 126 426 274H803c-71-96-163-144-274-144-189 0-348 180-348 372 0 191 160 369 348 369 100 0 189-44 266-132h155C852-65 712 22 529 22 275 22 51-223 51-478" id="af"/><path fill="#3a414a" d="M898-260C898-89 674 20 489 20 280 20 75-78 57-254l126-27c2 114 176 171 313 171 113 0 265-50 265-150 0-60-40-102-120-127-21-6-104-22-252-42-166-23-242-71-302-158-134-339 365-481 654-327 94 50 148 120 161 213l-126 27c-25-116-134-174-329-174-116 0-251 47-251 149 0 73 54 127 164 147 83 15 168 18 253 29 83 11 158 46 225 101 40 33 60 87 60 162" id="ag"/><g id="f"><use transform="matrix(0.0126953125,0,0,0.0126953125,0,0)" xlink:href="#aa"/><use transform="matrix(0.0126953125,0,0,0.0126953125,14.2822265625,0)" xlink:href="#ab"/><use transform="matrix(0.0126953125,0,0,0.0126953125,28.564453125,0)" xlink:href="#ac"/><use transform="matrix(0.0126953125,0,0,0.0126953125,39.4443359375,0)" xlink:href="#ad"/><use transform="matrix(0.0126953125,0,0,0.0126953125,53.16796875,0)" xlink:href="#ae"/><use transform="matrix(0.0126953125,0,0,0.0126953125,58.24609375,0)" xlink:href="#af"/><use transform="matrix(0.0126953125,0,0,0.0126953125,72.0078125,0)" xlink:href="#ab"/><use transform="matrix(0.0126953125,0,0,0.0126953125,86.2900390625,0)" xlink:href="#ag"/></g><path fill="#3a414a" d="M49-130h171v-1096H49v-129h479v129H352v1096h176V0H49v-130" id="ah"/><g id="g"><use transform="matrix(0.0126953125,0,0,0.0126953125,0,0)" xlink:href="#ah"/><use transform="matrix(0.0126953125,0,0,0.0126953125,7.76953125,0)" xlink:href="#ah"/><use transform="matrix(0.0126953125,0,0,0.0126953125,15.5390625,0)" xlink:href="#aa"/></g><path fill="#3a414a" d="M227-1355L895-225v-1130h132V0H873L204-1135V0H72v-1355h155" id="ai"/><path fill="#3a414a" d="M881-477c0-189-160-372-351-372-189 0-348 181-348 372s160 369 348 369 351-180 351-369zm-829-1c0-256 220-501 478-501 257 0 481 246 481 502S785 22 530 22C276 22 52-223 52-478" id="aj"/><path fill="#3a414a" d="M-2-478c0-256 249-501 505-501 147 0 261 65 343 196v-572h132V0H846v-174C761-43 645 22 498 22 243 22-2-223-2-478zm843 0c0-191-151-371-338-371S128-665 128-478s183 370 370 370c188 0 343-180 343-370" id="ak"/><path fill="#3a414a" d="M267-1203c-40 0-79-36-79-76s39-76 79-76c41 0 78 35 78 76s-37 76-78 76zM11 265c103 3 189-67 189-167v-923c-41-1-88 3-126-2v-130h257L330 98c5 177-143 304-319 301V265" id="al"/><g id="h"><use transform="matrix(0.0126953125,0,0,0.0126953125,0,0)" xlink:href="#ai"/><use transform="matrix(0.0126953125,0,0,0.0126953125,14.802734375,0)" xlink:href="#aj"/><use transform="matrix(0.0126953125,0,0,0.0126953125,29.0849609375,0)" xlink:href="#ak"/><use transform="matrix(0.0126953125,0,0,0.0126953125,43.21484375,0)" xlink:href="#ab"/><use transform="matrix(0.0126953125,0,0,0.0126953125,57.4970703125,0)" xlink:href="#al"/><use transform="matrix(0.0126953125,0,0,0.0126953125,62.8291015625,0)" xlink:href="#ag"/></g><path fill="#3a414a" d="M695-649l-152-510-156 510h308zM888 0L732-517H348L192 0H57l406-1355h160L1029 0H888" id="am"/><path fill="#3a414a" d="M483-108c191 0 291-169 291-370v-479h130V0H774v-137C701-31 604 22 483 22 219 22 67-183 67-456v-501h130v501c-4 182 112 348 286 348" id="an"/><path fill="#3a414a" d="M543-849c-184 0-339 185-339 371V0H74v-1355h130v572c84-131 197-196 339-196 250 0 421 235 421 493V0H834v-478c4-195-107-371-291-371" id="ao"/><g id="i"><use transform="matrix(0.0126953125,0,0,0.0126953125,0,0)" xlink:href="#am"/><use transform="matrix(0.0126953125,0,0,0.0126953125,14.599609375,0)" xlink:href="#an"/><use transform="matrix(0.0126953125,0,0,0.0126953125,27.802734375,0)" xlink:href="#Z"/><use transform="matrix(0.0126953125,0,0,0.0126953125,35.572265625,0)" xlink:href="#ao"/></g><path fill="#3a414a" d="M204-1131V0H72v-1355h167l417 834 417-834h172V0h-133v-1131L732-373H584" id="ap"/><g id="j"><use transform="matrix(0.0126953125,0,0,0.0126953125,0,0)" xlink:href="#ap"/><use transform="matrix(0.0126953125,0,0,0.0126953125,17.7099609375,0)" xlink:href="#ab"/><use transform="matrix(0.0126953125,0,0,0.0126953125,31.9921875,0)" xlink:href="#Z"/><use transform="matrix(0.0126953125,0,0,0.0126953125,39.76171875,0)" xlink:href="#Y"/></g><path fill="#3a414a" d="M209-478c0 191 154 370 342 370 187 0 348-181 348-370S737-849 551-849c-188 0-342 180-342 371zm820 0c0 258-224 500-478 500-147 0-262-65-347-196v573H74V-957h130v174c85-131 200-196 347-196 256 0 478 244 478 501" id="aq"/><g id="l"><use transform="matrix(0.015190972222222224,0,0,0.015190972222222224,0,0)" xlink:href="#am"/><use transform="matrix(0.015190972222222224,0,0,0.015190972222222224,17.469618055555557,0)" xlink:href="#aq"/><use transform="matrix(0.015190972222222224,0,0,0.015190972222222224,34.37717013888889,0)" xlink:href="#aq"/></g><path fill="#3a414a" d="M922-478c0-187-188-371-375-371S209-669 209-478c0 190 155 370 343 370 187 0 370-183 370-370zm130 0c0 255-245 500-500 500-147 0-263-65-348-196V0H72v-1355h132v572c82-131 196-196 343-196 256 0 505 245 505 501" id="ar"/><g id="m"><use transform="matrix(0.015190972222222224,0,0,0.015190972222222224,0,0)" xlink:href="#X"/><use transform="matrix(0.015190972222222224,0,0,0.015190972222222224,16.66449652777778,0)" xlink:href="#Y"/><use transform="matrix(0.015190972222222224,0,0,0.015190972222222224,32.12890625,0)" xlink:href="#Z"/><use transform="matrix(0.015190972222222224,0,0,0.015190972222222224,41.42578125,0)" xlink:href="#Y"/><use transform="matrix(0.015190972222222224,0,0,0.015190972222222224,57.619357638888886,0)" xlink:href="#ar"/><use transform="matrix(0.015190972222222224,0,0,0.015190972222222224,74.90668402777777,0)" xlink:href="#Y"/><use transform="matrix(0.015190972222222224,0,0,0.015190972222222224,91.10026041666666,0)" xlink:href="#ag"/><use transform="matrix(0.015190972222222224,0,0,0.015190972222222224,106.33680555555554,0)" xlink:href="#ab"/></g><path fill="#3a414a" d="M865-1355v130H204v428h531v130H204v537h661V0H74v-1355h791" id="as"/><path fill="#3a414a" d="M224-957l269 369 270-369h164L577-475 927 0H760L493-366 227 0H61l352-475L61-957h163" id="at"/><path fill="#3a414a" d="M545-849c-196 0-341 171-341 371V0H74v-957h130v174c77-131 190-196 341-196 285 0 449 200 449 493V0H862v-478c2-219-106-371-317-371" id="au"/><path fill="#3a414a" d="M86-1355h132V0H86v-1355" id="av"/><g id="n"><use transform="matrix(0.026041666666666668,0,0,0.026041666666666668,0,0)" xlink:href="#as"/><use transform="matrix(0.026041666666666668,0,0,0.026041666666666668,24.583333333333336,0)" xlink:href="#at"/><use transform="matrix(0.026041666666666668,0,0,0.026041666666666668,51.770833333333336,0)" xlink:href="#Z"/><use transform="matrix(0.026041666666666668,0,0,0.026041666666666668,67.70833333333334,0)" xlink:href="#ab"/><use transform="matrix(0.026041666666666668,0,0,0.026041666666666668,97.00520833333334,0)" xlink:href="#ac"/><use transform="matrix(0.026041666666666668,0,0,0.026041666666666668,120.78125,0)" xlink:href="#au"/><use transform="matrix(0.026041666666666668,0,0,0.026041666666666668,149.86979166666666,0)" xlink:href="#Y"/><use transform="matrix(0.026041666666666668,0,0,0.026041666666666668,177.63020833333331,0)" xlink:href="#av"/></g><path fill="#3a414a" d="M1188-1355h137L1082 0H941L688-1071 431 0H296L53-1355h135L376-296l246-1059h129l252 1059" id="aw"/><g id="o"><use transform="matrix(0.026041666666666668,0,0,0.026041666666666668,0,0)" xlink:href="#aw"/><use transform="matrix(0.026041666666666668,0,0,0.026041666666666668,37.99479166666667,0)" xlink:href="#ab"/><use transform="matrix(0.026041666666666668,0,0,0.026041666666666668,67.29166666666667,0)" xlink:href="#ar"/></g><g id="p"><use transform="matrix(0.026041666666666668,0,0,0.026041666666666668,0,0)" xlink:href="#am"/><use transform="matrix(0.026041666666666668,0,0,0.026041666666666668,29.947916666666668,0)" xlink:href="#aq"/><use transform="matrix(0.026041666666666668,0,0,0.026041666666666668,58.93229166666667,0)" xlink:href="#ae"/><use transform="matrix(0.026041666666666668,0,0,0.026041666666666668,69.34895833333334,0)" xlink:href="#ag"/></g><g id="q"><use transform="matrix(0.015190972222222224,0,0,0.015190972222222224,0,0)" xlink:href="#am"/><use transform="matrix(0.015190972222222224,0,0,0.015190972222222224,17.469618055555557,0)" xlink:href="#au"/><use transform="matrix(0.015190972222222224,0,0,0.015190972222222224,34.437934027777786,0)" xlink:href="#ak"/><use transform="matrix(0.015190972222222224,0,0,0.015190972222222224,51.34548611111112,0)" xlink:href="#ac"/><use transform="matrix(0.015190972222222224,0,0,0.015190972222222224,62.662760416666686,0)" xlink:href="#aj"/><use transform="matrix(0.015190972222222224,0,0,0.015190972222222224,79.75260416666669,0)" xlink:href="#ae"/><use transform="matrix(0.015190972222222224,0,0,0.015190972222222224,85.82899305555557,0)" xlink:href="#ak"/></g><path fill="#3a414a" d="M540-1249c-205 0-353 174-353 382v377c-5 208 148 382 353 382s353-174 353-382v-377c5-208-148-382-353-382zm0-130c272 0 483 251 483 528v345c8 277-211 528-483 528S57-229 57-506v-345c-8-277 211-528 483-528" id="ax"/><g id="r"><use transform="matrix(0.015190972222222224,0,0,0.015190972222222224,0,0)" xlink:href="#ae"/><use transform="matrix(0.015190972222222224,0,0,0.015190972222222224,6.076388888888889,0)" xlink:href="#ax"/><use transform="matrix(0.015190972222222224,0,0,0.015190972222222224,23.272569444444446,0)" xlink:href="#aa"/></g><path fill="#3a414a" d="M395 0L60-957h137l259 739 167-476-93-263h137l262 744 258-744h138L991 0H866L692-498 516 0H395" id="ay"/><g id="s"><use transform="matrix(0.015190972222222224,0,0,0.015190972222222224,0,0)" xlink:href="#aw"/><use transform="matrix(0.015190972222222224,0,0,0.015190972222222224,22.163628472222225,0)" xlink:href="#ae"/><use transform="matrix(0.015190972222222224,0,0,0.015190972222222224,28.240017361111114,0)" xlink:href="#au"/><use transform="matrix(0.015190972222222224,0,0,0.015190972222222224,45.20833333333334,0)" xlink:href="#ak"/><use transform="matrix(0.015190972222222224,0,0,0.015190972222222224,62.11588541666668,0)" xlink:href="#aj"/><use transform="matrix(0.015190972222222224,0,0,0.015190972222222224,77.74739583333334,0)" xlink:href="#ay"/><use transform="matrix(0.015190972222222224,0,0,0.015190972222222224,99.60720486111111,0)" xlink:href="#ag"/></g><g id="t"><use transform="matrix(0.015190972222222224,0,0,0.015190972222222224,0,0)" xlink:href="#aw"/><use transform="matrix(0.015190972222222224,0,0,0.015190972222222224,22.163628472222225,0)" xlink:href="#ab"/><use transform="matrix(0.015190972222222224,0,0,0.015190972222222224,39.25347222222223,0)" xlink:href="#ar"/></g><path fill="#3a414a" d="M816-616c-46-109-154-210-294-210-133 0-258 109-301 210h595zM31-484c0-260 230-507 491-507 282 0 495 254 487 541H196c10 148 163 311 326 306 147-5 277-104 326-215l166 28C947-150 753 16 522 21 260 27 31-223 31-484" id="az"/><path fill="#3a414a" d="M68-580C-45-823 215-987 454-987c229 0 422 106 446 301l-161 34c-17-73-62-125-139-149-121-38-274-36-352 29-25 21-38 44-38 71 0 66 59 112 178 131 86 13 176 12 261 32 115 27 244 96 244 266 0 81-40 141-102 191C645 38 359 49 192-49 101-102 48-180 33-282l163-35c5 118 149 172 287 172 93 0 238-46 238-127 0-45-37-74-103-103-48-21-337-53-386-71-61-22-144-92-164-134" id="aA"/><g id="u"><use transform="matrix(0.026041666666666668,0,0,0.026041666666666668,0,0)" xlink:href="#K"/><use transform="matrix(0.026041666666666668,0,0,0.026041666666666668,29.53125,0)" xlink:href="#T"/><use transform="matrix(0.026041666666666668,0,0,0.026041666666666668,40.78125,0)" xlink:href="#P"/><use transform="matrix(0.026041666666666668,0,0,0.026041666666666668,51.97916666666667,0)" xlink:href="#az"/><use transform="matrix(0.026041666666666668,0,0,0.026041666666666668,82.05729166666667,0)" xlink:href="#O"/><use transform="matrix(0.026041666666666668,0,0,0.026041666666666668,111.92708333333334,0)" xlink:href="#Q"/><use transform="matrix(0.026041666666666668,0,0,0.026041666666666668,128.64583333333334,0)" xlink:href="#aA"/></g><path fill="#3a414a" d="M985-938c0 247-271 428-529 421H204V0H72v-1355h384c256-7 529 172 529 417zm-130 0c0-191-192-287-399-287H204v578h252c200 4 399-104 399-291" id="aB"/><path fill="#3a414a" d="M431-1222c-103-2-191 65-188 167v98h188v130H243V0H111v-827H33v-130h78c-7-146 8-241 94-317 61-53 135-81 226-81v133" id="aC"/><path fill="#3a414a" d="M455-849c-173 0-251 180-251 371V0H74v-957h130v106c60-85 144-128 251-128 146 0 245 69 296 208 37-139 135-208 295-208 233 0 349 167 349 501V0h-130v-478c0-247-73-371-219-371-169 0-241 180-241 371V0H675l-1-478c0-247-73-371-219-371" id="aD"/><g id="v"><use transform="matrix(0.015190972222222224,0,0,0.015190972222222224,0,0)" xlink:href="#aB"/><use transform="matrix(0.015190972222222224,0,0,0.015190972222222224,16.102430555555557,0)" xlink:href="#av"/><use transform="matrix(0.015190972222222224,0,0,0.015190972222222224,21.495225694444446,0)" xlink:href="#Y"/><use transform="matrix(0.015190972222222224,0,0,0.015190972222222224,36.95963541666667,0)" xlink:href="#Z"/><use transform="matrix(0.015190972222222224,0,0,0.015190972222222224,46.25651041666667,0)" xlink:href="#aC"/><use transform="matrix(0.015190972222222224,0,0,0.015190972222222224,53.62413194444445,0)" xlink:href="#aj"/><use transform="matrix(0.015190972222222224,0,0,0.015190972222222224,70.71397569444446,0)" xlink:href="#ac"/><use transform="matrix(0.015190972222222224,0,0,0.015190972222222224,83.7326388888889,0)" xlink:href="#aD"/></g><g id="w"><use transform="matrix(0.015190972222222224,0,0,0.015190972222222224,0,0)" xlink:href="#aa"/><use transform="matrix(0.015190972222222224,0,0,0.015190972222222224,17.08984375,0)" xlink:href="#ab"/><use transform="matrix(0.015190972222222224,0,0,0.015190972222222224,34.1796875,0)" xlink:href="#ac"/><use transform="matrix(0.015190972222222224,0,0,0.015190972222222224,47.19835069444444,0)" xlink:href="#ad"/><use transform="matrix(0.015190972222222224,0,0,0.015190972222222224,63.61979166666667,0)" xlink:href="#ae"/><use transform="matrix(0.015190972222222224,0,0,0.015190972222222224,69.69618055555556,0)" xlink:href="#af"/><use transform="matrix(0.015190972222222224,0,0,0.015190972222222224,86.16319444444444,0)" xlink:href="#ab"/><use transform="matrix(0.015190972222222224,0,0,0.015190972222222224,103.25303819444444,0)" xlink:href="#ag"/></g><g id="x"><use transform="matrix(0.015190972222222224,0,0,0.015190972222222224,0,0)" xlink:href="#X"/><use transform="matrix(0.015190972222222224,0,0,0.015190972222222224,16.66449652777778,0)" xlink:href="#Y"/><use transform="matrix(0.015190972222222224,0,0,0.015190972222222224,32.12890625,0)" xlink:href="#Z"/><use transform="matrix(0.015190972222222224,0,0,0.015190972222222224,41.42578125,0)" xlink:href="#Y"/></g><path d="M525 21C250 26 36-232 36-512v-335c-8-279 214-533 489-533 269 0 443 204 484 450H844c-26-159-149-285-319-285-187 0-324 162-324 352v367c-5 191 137 352 324 352 171 0 294-127 319-285h165C968-183 794 16 525 21" id="aE"/><path d="M838-484c0-173-151-342-322-342-177 0-319 167-319 342 0 176 146 340 319 340 171 0 322-167 322-340zm-807 0c0-265 224-507 485-507 260 0 487 246 487 507 0 260-229 505-487 505C255 21 31-224 31-484" id="aF"/><path d="M1018-991c257 0 359 224 359 507V0h-166v-484c0-228-64-342-193-342-155-1-215 166-215 342V0H637l-1-484c0-228-64-342-193-342-159-1-225 164-225 342V0H53v-970h165v68c59-59 134-89 225-89 133 0 229 56 286 168 46-112 142-168 289-168" id="aG"/><path d="M528 21C257 21 44-237 44-512v-845h165v863c-5 182 140 350 319 350 184 0 320-166 320-354v-859h166v845c8 275-215 533-486 533" id="aH"/><path d="M530-826c-179 0-312 160-312 342V0H53v-970h165v127c78-99 182-148 312-148 289 0 456 203 456 499V0H819v-484c2-203-95-342-289-342" id="aI"/><path d="M233-1172c-50 0-96-44-96-94 0-49 46-93 96-93s96 43 96 93c0 52-44 94-96 94zM26-970h289V0H150v-805H26v-165" id="aJ"/><path d="M395 0C260 4 152-110 152-245v-560H6v-165c76 0 121-15 136-44 7-13 10-65 10-156h165v200h235v165H317v560c-9 115 138 72 235 80V0H395" id="aK"/><path d="M227 223c70 1 118-13 144-44 18-20 89-200 113-260L-1-970h190l373 688 274-688h179L558 176c-61 148-166 217-331 211V223" id="aL"/><g id="y"><use transform="matrix(0.01953125,0,0,0.01953125,0,0)" xlink:href="#aE"/><use transform="matrix(0.01953125,0,0,0.01953125,22.1484375,0)" xlink:href="#aF"/><use transform="matrix(0.01953125,0,0,0.01953125,44.70703125,0)" xlink:href="#aG"/><use transform="matrix(0.01953125,0,0,0.01953125,75.5078125,0)" xlink:href="#aH"/><use transform="matrix(0.01953125,0,0,0.01953125,98.5546875,0)" xlink:href="#aI"/><use transform="matrix(0.01953125,0,0,0.01953125,120.95703125,0)" xlink:href="#aJ"/><use transform="matrix(0.01953125,0,0,0.01953125,129.35546875,0)" xlink:href="#aK"/><use transform="matrix(0.01953125,0,0,0.01953125,141.89453125,0)" xlink:href="#aL"/></g><path d="M812-932c0-173-180-260-368-260H218v524h226c185 4 368-93 368-264zm166 0c0 250-274 437-534 429H218V0H51v-1357h393c258-7 534 177 534 425" id="aM"/><path d="M125-1357h167V0H125v-1357" id="aN"/><path d="M484-144c91 0 275-43 275-120v-184c-54 18-283 13-339 27-84 21-172 73-172 157 0 80 79 120 236 120zm27-847c168 0 413 106 413 260v563c0 15 16 23 48 26-4 64-6 118-6 163-81-4-138-29-172-76-80 51-181 76-304 76C213 21 75-75 75-266c0-155 132-276 270-302-15-8 340-16 395-49 13-7 20-20 21-39-1 24-2 8-2-49 0-71-154-124-234-124-152 0-248 58-288 173L79-690c32-191 203-301 432-301" id="aO"/><path d="M439-1189c-122 0-183 48-183 143v76h183v165H256V0H89v-805H13v-165h76c-8-144 16-237 103-308 64-53 146-79 247-79v168" id="aP"/><path d="M535-805c-177 0-317 145-317 321V0H51v-970h167v134c85-89 189-134 310-134h218v218c-83-35-153-53-211-53" id="aQ"/><g id="z"><use transform="matrix(0.01953125,0,0,0.01953125,0,0)" xlink:href="#aM"/><use transform="matrix(0.01953125,0,0,0.01953125,21.2890625,0)" xlink:href="#aN"/><use transform="matrix(0.01953125,0,0,0.01953125,29.7265625,0)" xlink:href="#aO"/><use transform="matrix(0.01953125,0,0,0.01953125,50.1953125,0)" xlink:href="#aK"/><use transform="matrix(0.01953125,0,0,0.01953125,62.734375,0)" xlink:href="#aP"/><use transform="matrix(0.01953125,0,0,0.01953125,72.79296875,0)" xlink:href="#aF"/><use transform="matrix(0.01953125,0,0,0.01953125,95.3515625,0)" xlink:href="#aQ"/><use transform="matrix(0.01953125,0,0,0.01953125,112.67578125,0)" xlink:href="#aG"/></g><g id="A"><use transform="matrix(0.015190972222222224,0,0,0.015190972222222224,0,0)" xlink:href="#ap"/><use transform="matrix(0.015190972222222224,0,0,0.015190972222222224,21.191406250000004,0)" xlink:href="#ab"/><use transform="matrix(0.015190972222222224,0,0,0.015190972222222224,38.28125,0)" xlink:href="#Z"/><use transform="matrix(0.015190972222222224,0,0,0.015190972222222224,47.578125,0)" xlink:href="#Y"/></g><g id="B"><use transform="matrix(0.015190972222222224,0,0,0.015190972222222224,0,0)" xlink:href="#am"/><use transform="matrix(0.015190972222222224,0,0,0.015190972222222224,17.469618055555557,0)" xlink:href="#an"/><use transform="matrix(0.015190972222222224,0,0,0.015190972222222224,33.26822916666667,0)" xlink:href="#Z"/><use transform="matrix(0.015190972222222224,0,0,0.015190972222222224,42.56510416666667,0)" xlink:href="#ao"/></g><path fill="#3a414a" d="M182 0C123 0 72-49 72-109c0-61 49-111 110-111s109 50 109 111C291-49 242 0 182 0" id="aR"/><g id="C"><use transform="matrix(0.015190972222222224,0,0,0.015190972222222224,0,0)" xlink:href="#ai"/><use transform="matrix(0.015190972222222224,0,0,0.015190972222222224,17.712673611111114,0)" xlink:href="#aj"/><use transform="matrix(0.015190972222222224,0,0,0.015190972222222224,34.802517361111114,0)" xlink:href="#ak"/><use transform="matrix(0.015190972222222224,0,0,0.015190972222222224,51.71006944444445,0)" xlink:href="#ab"/><use transform="matrix(0.015190972222222224,0,0,0.015190972222222224,68.79991319444446,0)" xlink:href="#aR"/><use transform="matrix(0.015190972222222224,0,0,0.015190972222222224,74.72439236111113,0)" xlink:href="#al"/><use transform="matrix(0.015190972222222224,0,0,0.015190972222222224,81.10460069444446,0)" xlink:href="#ag"/></g><g id="D"><use transform="matrix(0.015190972222222224,0,0,0.015190972222222224,0,0)" xlink:href="#ah"/><use transform="matrix(0.015190972222222224,0,0,0.015190972222222224,9.296875000000002,0)" xlink:href="#ah"/><use transform="matrix(0.015190972222222224,0,0,0.015190972222222224,18.593750000000004,0)" xlink:href="#aa"/></g></defs></g></svg>